<mxfile host="app.diagrams.net" modified="2023-09-05T02:59:16.527Z" agent="Mozilla/5.0 (Windows NT 10.0; Win64; x64) AppleWebKit/537.36 (KHTML, like Gecko) Chrome/116.0.0.0 Safari/537.36" version="21.6.2" etag="LFmoonfISJdCkH_I1uRk" type="github">
  <diagram name="第 1 页" id="jC-kXSKO8Bn7Zn_cK90W">
    <mxGraphModel>
      <root>
        <mxCell id="0" />
        <mxCell id="1" parent="0" />
      </root>
    </mxGraphModel>
  </diagram>
</mxfile>
